<?xml version="1.0" encoding="utf-8"?>
<!-- Generator: Adobe Illustrator 16.0.0, SVG Export Plug-In . SVG Version: 6.00 Build 0)  -->
<!DOCTYPE svg PUBLIC "-//W3C//DTD SVG 1.1//EN" "http://www.w3.org/Graphics/SVG/1.1/DTD/svg11.dtd">
<svg version="1.1" id="Layer_1" xmlns="http://www.w3.org/2000/svg" xmlns:xlink="http://www.w3.org/1999/xlink" x="0px" y="0px"
	 viewBox="0 0 113.386 113.386" enable-background="new 0 0 113.386 113.386"
	 xml:space="preserve">
<g>
	<circle fill="#63C29D" cx="56.693" cy="56.693" r="56.693"/>
	<path fill="#FFFFFF" d="M74.361,78.205c-1.881,1.506-4.096,2.695-6.578,3.535c-2.633,0.891-5.439,1.342-8.344,1.342
		c-2.903,0-5.714-0.451-8.343-1.342c-2.483-0.84-4.697-2.029-6.578-3.535c-1.793-1.436-3.185-3.076-4.139-4.879
		c-0.931-1.76-1.403-3.615-1.403-5.516c0-0.715,0.069-1.424,0.2-2.123c2.52,1.77,5.333,3.193,8.398,4.23
		c3.769,1.275,7.762,1.922,11.864,1.922c4.106,0,8.096-0.646,11.863-1.922c3.297-1.113,6.303-2.672,8.961-4.629
		c3.051-1.598,5.135-4.787,5.135-8.468c0-3.046-1.432-5.752-3.648-7.502c-0.16-0.169-0.334-0.333-0.523-0.483
		c-2.885-2.308-6.223-4.113-9.924-5.365c-3.768-1.275-7.757-1.922-11.863-1.922c-4.102,0-8.096,0.646-11.864,1.922
		c-3.065,1.037-5.879,2.461-8.398,4.23c-0.131-0.699-0.2-1.408-0.2-2.123c0-1.899,0.473-3.755,1.403-5.515
		c0.954-1.803,2.346-3.444,4.139-4.878c1.883-1.506,4.096-2.696,6.578-3.537c2.629-0.891,5.44-1.342,8.343-1.342
		c2.904,0,5.711,0.451,8.344,1.342c2.482,0.841,4.695,2.031,6.578,3.537c2.367,1.895,5.826,1.511,7.725-0.858
		c1.895-2.37,1.51-5.828-0.859-7.723c-2.885-2.308-6.223-4.113-9.922-5.365c-3.77-1.275-7.759-1.922-11.865-1.922
		c-4.102,0-8.096,0.647-11.864,1.922c-3.701,1.251-7.037,3.057-9.922,5.365c-2.976,2.381-5.328,5.181-6.989,8.323
		c-1.775,3.359-2.678,6.943-2.678,10.651c0,3.708,0.902,7.292,2.678,10.652c0.084,0.157,0.177,0.309,0.263,0.464
		c-0.086,0.155-0.179,0.308-0.263,0.464c-1.775,3.359-2.678,6.943-2.678,10.652s0.902,7.291,2.678,10.65
		c1.661,3.143,4.013,5.943,6.989,8.324c2.885,2.307,6.221,4.111,9.922,5.363c3.769,1.275,7.762,1.922,11.864,1.922
		c4.106,0,8.096-0.646,11.865-1.922c3.699-1.252,7.037-3.057,9.922-5.363c2.369-1.896,2.754-5.354,0.859-7.723
		C80.189,76.693,76.732,76.309,74.361,78.205z M51.097,53.88c2.633-0.891,5.44-1.342,8.343-1.342c2.904,0,5.711,0.452,8.344,1.342
		c2.064,0.698,3.928,1.651,5.584,2.814c-1.656,1.163-3.52,2.116-5.584,2.813c-2.633,0.891-5.439,1.344-8.344,1.344
		c-2.903,0-5.714-0.453-8.343-1.344c-2.062-0.697-3.928-1.65-5.584-2.813C47.169,55.531,49.034,54.578,51.097,53.88z"/>
</g>
</svg>
