<svg xmlns="http://www.w3.org/2000/svg" viewBox="0 0 136.27 204.04"><defs><style>.cls-1{fill:none;stroke:#fff;stroke-linecap:round;stroke-linejoin:round;stroke-width:9px;}.cls-2{fill:#fff;}</style></defs><g id="stroke"><path class="cls-1" d="M344.36,360.14l-48.29,18.8C290,363.35,277,358.78,252.49,344.26c-3.88-2.29-6-6.62-4.19-10.75a8.17,8.17,0,0,1,10.76-4.19L275.5,334l-20.57-52.85a8.16,8.16,0,1,1,15.21-5.92L282.5,307" transform="translate(-212.59 -179.4)"/><path class="cls-1" d="M282.37,307a9,9,0,0,1,16.8-4.18,9,9,0,0,1,15.63,0A9,9,0,0,1,331,304.05l6.28,16.14c3.23,8.1,3.75,18.56,3.81,23.28" transform="translate(-212.59 -179.4)"/><polyline class="cls-1" points="29.95 177.56 4.5 177.56 4.5 41.06 29 41.06 57.2 41.06 123.27 41.06 123.27 105.11"/><path class="cls-1" d="M257.12,215.72V203.37a19.36,19.36,0,1,1,38.71,0v12.35" transform="translate(-212.59 -179.4)"/></g><g id="fill"><path class="cls-2" d="M348.55,358.51a4.48,4.48,0,0,0-5.82-2.56L298.41,373.2c-5.85-11.29-15.74-16.9-31.1-25.59-3.74-2.12-8-4.52-12.53-7.22-1.81-1.07-3.24-3.06-2.36-5.07a3.67,3.67,0,0,1,4.83-1.88,3.1,3.1,0,0,0,.58.21l16.45,4.65a4.51,4.51,0,0,0,5.42-6l-20.58-52.84a3.66,3.66,0,0,1,2.08-4.74,3.66,3.66,0,0,1,4.74,2.08l12,30.77a4.51,4.51,0,0,0,4.32,3.92,4.65,4.65,0,0,0,1.83-.34l.07,0A4.49,4.49,0,0,0,287,306.4a4.49,4.49,0,0,1,8.31-1.34,4.51,4.51,0,0,0,3.91,2.28h0a4.5,4.5,0,0,0,3.91-2.27,4.45,4.45,0,0,1,2.27-2,4.52,4.52,0,0,1,5.53,2,4.52,4.52,0,0,0,3.91,2.29h0a4.5,4.5,0,0,0,3.91-2.28,4.44,4.44,0,0,1,2.27-2,4.5,4.5,0,0,1,5.82,2.56l6.29,16.18c3,7.52,3.44,17.66,3.49,21.66a4.5,4.5,0,0,0,4.5,4.45h.06a4.5,4.5,0,0,0,4.44-4.56c-.07-5.6-.7-16.28-4.11-24.85l-6.29-16.15a13.51,13.51,0,0,0-17.47-7.68,13.71,13.71,0,0,0-2.92,1.58,13.54,13.54,0,0,0-12.7-1.59,13.25,13.25,0,0,0-2.92,1.57,13.55,13.55,0,0,0-12.7-1.59,13.3,13.3,0,0,0-3.22,1.79l-8.92-22.92a12.66,12.66,0,0,0-23.6,9.18L268,327.18l-7.48-2.11a12.68,12.68,0,0,0-16.37,6.63c-2.6,5.92-.07,12.83,6,16.44,4.64,2.74,8.91,5.16,12.69,7.3,15.89,9,24.65,14,29,25.13a4.51,4.51,0,0,0,2.38,2.49,4.56,4.56,0,0,0,1.81.38,4.33,4.33,0,0,0,1.63-.31L346,364.33A4.49,4.49,0,0,0,348.55,358.51Z" transform="translate(-212.59 -179.4)"/><path class="cls-2" d="M242.54,352.46H221.59V225H331.36v59.55a4.5,4.5,0,0,0,9,0v-64a4.51,4.51,0,0,0-4.5-4.5H300.3a2,2,0,0,0,0-.24V203.37a23.86,23.86,0,1,0-47.71,0v12.35c0,.08,0,.16,0,.24H217.09a4.5,4.5,0,0,0-4.5,4.5V357a4.49,4.49,0,0,0,4.5,4.5h25.45a4.5,4.5,0,1,0,0-9Zm19.08-136.74V203.37a14.86,14.86,0,1,1,29.71,0v12.35c0,.08,0,.16,0,.24H261.59A2,2,0,0,0,261.62,215.72Z" transform="translate(-212.59 -179.4)"/></g></svg>