<svg xmlns="http://www.w3.org/2000/svg" viewBox="0 0 141.75 209.04"><defs><style>.cls-1{fill:none;stroke:#fff;stroke-linecap:round;stroke-linejoin:round;stroke-width:9px;}.cls-2{fill:#fff;}</style></defs><g id="stroke"><polyline class="cls-1" points="29.94 177.51 4.5 177.51 4.5 41.05 28.99 41.05 57.19 41.05 123.23 41.05 123.23 105.08"/><path class="cls-1" d="M257.11,215.25V202.9a19.35,19.35,0,1,1,38.7,0v12.35" transform="translate(-212.59 -178.94)"/><polyline class="cls-1" points="58.39 109.59 77.11 115.73 71.31 133.37"/><path class="cls-1" d="M331.29,299.79a46.48,46.48,0,1,1-59.77,3.2" transform="translate(-212.59 -178.94)"/></g><g id="fill"><path class="cls-2" d="M242.53,352H221.59V224.49H331.32V284a4.5,4.5,0,0,0,9,0V220a4.5,4.5,0,0,0-4.5-4.5H300.28a2,2,0,0,0,0-.24V202.9a23.85,23.85,0,1,0-47.7,0v12.35c0,.08,0,.16,0,.24H217.09a4.51,4.51,0,0,0-4.5,4.5V356.45a4.5,4.5,0,0,0,4.5,4.5h25.44a4.5,4.5,0,1,0,0-9Zm19.08-136.7V202.9a14.85,14.85,0,1,1,29.7,0v12.35c0,.08,0,.16,0,.24H261.58A2,2,0,0,0,261.61,215.25Z" transform="translate(-212.59 -178.94)"/><path class="cls-2" d="M282.5,316.59a4.59,4.59,0,0,0,1.4.22,4.5,4.5,0,0,0,4.28-3.09L294,296.08a4.51,4.51,0,0,0-2.87-5.68l-18.72-6.15a4.5,4.5,0,1,0-2.8,8.56L284,297.55l-4.39,13.36A4.5,4.5,0,0,0,282.5,316.59Z" transform="translate(-212.59 -178.94)"/><path class="cls-2" d="M353.83,329.83A50.68,50.68,0,0,0,334,296.19a4.5,4.5,0,0,0-5.41,7.2,42,42,0,1,1-58.84,8.3,42.45,42.45,0,0,1,4.86-5.42,4.5,4.5,0,1,0-6.16-6.56A51,51,0,0,0,303.25,388a51,51,0,0,0,50.58-58.13Z" transform="translate(-212.59 -178.94)"/></g></svg>