<svg xmlns="http://www.w3.org/2000/svg" viewBox="0 0 170.6 170.6"><defs><style>.cls-1{fill:none;stroke:#fff;stroke-linecap:round;stroke-linejoin:round;stroke-width:9px;}.cls-2{fill:#fff;}</style></defs><g id="stroke"><polyline class="cls-1" points="141.74 28.86 143.68 4.5 122.3 25.87 120.28 50.32 81.97 88.64"/><line class="cls-1" x1="144.73" y1="48.3" x2="138.87" y2="48.79"/><line class="cls-1" x1="166.1" y1="26.93" x2="144.73" y2="48.3"/><line class="cls-1" x1="141.74" y1="28.86" x2="166.1" y2="26.93"/><path class="cls-1" d="M291.49,248.55A41,41,0,1,0,317,274" transform="translate(-196.21 -198.73)"/><path class="cls-1" d="M304.51,214.49a77.42,77.42,0,1,0,46.65,46.84" transform="translate(-196.21 -198.73)"/></g><g id="fill"><path class="cls-2" d="M365.9,228.34a3.64,3.64,0,0,0,.24-.35,3.58,3.58,0,0,0,.21-.39c.06-.13.12-.26.17-.39s.09-.28.13-.42.07-.28.09-.43a2.71,2.71,0,0,0,0-.41,3.85,3.85,0,0,0,0-.48c0-.06,0-.11,0-.17s0-.15,0-.23-.05-.32-.09-.48a3,3,0,0,0-.12-.4,3.69,3.69,0,0,0-.17-.42,2.64,2.64,0,0,0-.2-.37,2.84,2.84,0,0,0-.25-.39c-.08-.11-.17-.21-.26-.32s-.11-.15-.18-.22l-.16-.13-.27-.22a3.46,3.46,0,0,0-.46-.32,1.67,1.67,0,0,0-.23-.12,3.44,3.44,0,0,0-.56-.25l-.24-.07a4.34,4.34,0,0,0-.6-.14,3,3,0,0,0-.31,0l-.54,0a.85.85,0,0,1-.16,0l-19.11,1.52,1.52-19.11a4.5,4.5,0,0,0-7.67-3.53l-21.37,21.37a4.42,4.42,0,0,0-1.3,2.81L312.14,247,275,284.18a4.5,4.5,0,0,0,6.37,6.36l38.31-38.31a4.52,4.52,0,0,0,1.3-2.81l1.89-22.8L334.43,215l-1,12.19c0,.12,0,.24,0,.36s0,.23,0,.36a.29.29,0,0,1,0,.09c0,.15,0,.29.08.43s.05.29.09.43.1.25.15.37a2.35,2.35,0,0,0,.19.43,2,2,0,0,0,.19.31,3.83,3.83,0,0,0,.27.39c.08.1.17.19.25.28l.33.32a3.81,3.81,0,0,0,.32.24,2.92,2.92,0,0,0,.37.24,3,3,0,0,0,.36.18,3.25,3.25,0,0,0,.43.18l.37.11.48.08.23.05h.16l.2,0h.36l12.19-1-11.58,11.57-4.22.35a4.5,4.5,0,0,0,.37,9h.38l5.86-.49a1.43,1.43,0,0,0,.22,0l.48-.09a2.64,2.64,0,0,0,.4-.12,3.61,3.61,0,0,0,.42-.16l.39-.21.35-.23.37-.31a1.24,1.24,0,0,0,.18-.14l21.37-21.37.11-.13C365.71,228.59,365.81,228.46,365.9,228.34Z" transform="translate(-196.21 -198.73)"/><path class="cls-2" d="M278.18,250.84a36.28,36.28,0,0,1,11.85,2,4.5,4.5,0,0,0,2.92-8.52,45.51,45.51,0,1,0,28.29,28.29,4.5,4.5,0,0,0-8.51,2.92,36.53,36.53,0,1,1-34.55-24.66Z" transform="translate(-196.21 -198.73)"/><path class="cls-2" d="M349.65,257.09a4.5,4.5,0,0,0-2.73,5.75A72.92,72.92,0,1,1,303,218.72a4.5,4.5,0,0,0,3.06-8.47,81.93,81.93,0,1,0,49.36,49.57A4.49,4.49,0,0,0,349.65,257.09Z" transform="translate(-196.21 -198.73)"/></g></svg>