<svg id="stroke" xmlns="http://www.w3.org/2000/svg" viewBox="0 0 179.1 186.43"><defs><style>.cls-1{fill:none;stroke:#fff;stroke-linecap:round;stroke-linejoin:round;stroke-width:9px;}</style></defs><path class="cls-1" d="M292.3,249.68a39.94,39.94,0,1,0,23.35,25.83" transform="translate(-187.72 -191.98)"/><polyline class="cls-1" points="69.41 85.92 89.47 116.61 129.42 51.68"/><path class="cls-1" d="M269.68,198.92s7.58-5.5,15.17,0l9,6.51s7.58,5.51,16.95,5.51h11.08s9.37,0,12.26,8.92l3.43,10.53s2.89,8.91,10.48,14.42l9,6.51s7.58,5.51,4.68,14.43l-3.42,10.53s-2.9,8.91,0,17.83l3.42,10.53s2.9,8.91-4.68,14.42l-9,6.51s-7.59,5.51-10.48,14.42l-3.43,10.54s-2.89,8.91-12.26,8.91H310.76s-9.37,0-16.95,5.51l-9,6.51s-7.59,5.51-15.17,0l-9-6.51s-7.58-5.51-17-5.51H232.69s-9.37,0-12.27-8.91L217,340s-2.9-8.91-10.48-14.42l-9-6.51s-7.58-5.51-4.69-14.42l3.43-10.53s2.89-8.92,0-17.83l-3.43-10.53s-2.89-8.92,4.69-14.43l9-6.51s7.58-5.51,10.48-14.42l3.42-10.53s2.9-8.92,12.27-8.92h11.08s9.37,0,17-5.51Z" transform="translate(-187.72 -191.98)"/></svg>