<svg xmlns="http://www.w3.org/2000/svg" xmlns:xlink="http://www.w3.org/1999/xlink" viewBox="0 0 706.2 165.7" xmlns:v="https://vecta.io/nano"><path fill="#1e1b58" d="M169.4 67.7c.4-.4.7-.8 1-1.2l3.5-5.3c-1.8-1.7-3.8-3.3-5.9-4.8l-.7-.5-1.6-1c-5.3-3.3-11.4-5.1-20.1-5C126.2 49.8 112 64.7 112 83v.2c0 19 13.8 33 33.8 33 7.9 0 15.7-2.2 22.5-6.4 3.4-2 5-4.9 5-9V78.1h-29.4v6.2c0 3.3 2.7 6.1 6.1 6.1h9.5v9.2c-3.9 2.6-8.6 4-13.3 3.8-11.4 0-19.4-8.6-19.4-20.4v-.2c0-10.9 8.2-20 18.4-20 5-.1 9.9 1.4 14 4.4l.7.5c2.1 2.1 6.7 2.8 9.5 0zm102.4 0c.4-.4.7-.8 1-1.2 0 0 2.6-3.7 3.5-5.3-1.8-1.7-3.7-3.3-5.8-4.8-.5-.4-.7-.5-.7-.5-.5-.3-1.5-1-1.6-1-5.3-3.3-11.4-5.1-20.1-5.1-19.4 0-33.6 14.9-33.6 33.2v.2c0 19 13.8 33 33.8 33 7.9 0 15.7-2.2 22.5-6.4 3.4-2 5-4.9 5-9V78.1h-29.3v6.2a6.06 6.06 0 0 0 6.1 6.1h9.5v9.2c-3.9 2.7-8.6 4-13.3 3.8-11.4 0-19.4-8.6-19.4-20.4v-.2c0-10.9 8.1-20 18.4-20 5-.1 10 1.4 14 4.4l.7.5c1.9 2.1 6.5 2.8 9.3 0zm161.6-17.2a6.49 6.49 0 0 0-6.5 6.5v6.3H447v52.6h7.4c3.5.2 6.6-2.6 6.7-6.1V63.3h13.6c3.5.1 6.4-2.7 6.5-6.2v-6.6h-47.8zm-246.1 7.1v58.3h7.3c4.1 0 6.9-2.8 6.9-6.4v-59h-7.2c-3.9.1-7 3.2-7 7.1zM76.9 50.5h-7.4c-3.9.1-7 3.3-7 7.2v58.2h41c3.6.1 6.5-2.8 6.6-6.4v-6.7H76.9V50.5zM0 57.7v58.2h43.9c3.5 0 6.4-2.8 6.4-6.3v-6.8h-36V89.4h24.9c3.5 0 6.4-2.8 6.4-6.3a6.38 6.38 0 0 0-6.4-6.4H14.3V63.3h29.6c3.5 0 6.4-2.8 6.4-6.3v-6.5H7.2c-3.9-.1-7.2 3.1-7.2 7v.2zm491.3 0v58.2h43.9c3.5 0 6.4-2.8 6.5-6.3v-6.8h-36V89.4h25c3.5 0 6.4-2.8 6.4-6.3V83c0-3.6-2.9-6.5-6.4-6.5h-25V63.3h29.6c3.5 0 6.4-2.8 6.4-6.3v-6.5h-43.1c-3.9 0-7.2 3.1-7.2 7.1v.1zm-81.9-7.2c-3.7 0-6.7 2.9-6.7 7.2v33.1l-27.2-36.2c-1.9-2.5-3.9-4.1-7.3-4.1h-1.5a7.09 7.09 0 0 0-7.1 6.9v58.5h7.3c3.5.2 6.5-2.5 6.7-6.1V74.3l28.2 37.5c1.9 2.5 3.9 4.1 7.3 4.1h.5a7.09 7.09 0 0 0 7.1-6.9V50.5h-7.3zm-84.1 5.1c-1.6-3.5-4.3-5.6-8.2-5.6h-.8c-3.7 0-7 2.2-8.3 5.6l-24.6 55.9s3.5 3.2 5.5 4c.8.3 1.6.5 2.4.4 2.9 0 5.5-1.7 6.5-4.4l3.5-8.4h30.2l3.4 8c1.3 2.9 3.5 4.9 6.8 4.9 1 0 2-.2 2.9-.7 1.9-1.1 3.8-2.3 5.4-3.8l-24.7-55.9zm-18.7 34.6l9.8-23.2 9.8 23.2h-19.6zm295.9-39.7c-3.7 0-6.7 2.9-6.7 7.2v33.1l-27.2-36.2c-1.9-2.5-3.9-4.1-7.3-4.1h-1.5a7.09 7.09 0 0 0-7.1 6.9v58.5h7.3c3.5.2 6.5-2.5 6.7-6.1V74.3l28.3 37.5c1.9 2.5 3.9 4.1 7.3 4.1h.5a7.09 7.09 0 0 0 7.1-6.9V50.5h-7.4z"/><path d="M663.7 93.6L644.5 114c-8.4 8.6-13.3 20.1-13.6 32.2 0 .6 0 1.1-.1 1.7v.2c0 4.4.6 8.7 1.7 12.9l1.4 4.4 40.5-41.1c10.5-10.5 10.5-27.6 0-38.2l-5-5-2.1-2.2a16.72 16.72 0 0 1-3.6 14.7m-31-89.3c-1.9 8.8-1.5 18 1 26.6 3.4 11.8 12.9 22.7 12.9 22.7l40 40.1c4.1 4.1 5.8 9.9 4.7 15.5l1.8-2 5.1-5.1c4.4-4.4 7.2-10.3 7.8-16.5.1-.8.1-1.7.1-2.5V83c0-7.1-2.9-13.9-7.9-18.9L633.6 0l-.9 4.3z" fill="#93d500"/><defs><path id="A" d="M663.7 93.6L644.5 114c-8.4 8.6-13.3 20.1-13.6 32.2 0 .6 0 1.1-.1 1.7v.1c0 4.4.6 8.7 1.7 12.9l1.4 4.4 40.5-41.1c10.5-10.5 10.5-27.6 0-38.2l-5-5-2.1-2.2c1.2 5.3-.1 10.7-3.6 14.8"/></defs><clipPath id="B"><use xlink:href="#A"/></clipPath><g clip-path="url(#B)"><linearGradient id="C" x1="623.102" x2="677.704" y1="166.842" y2="94.906" gradientUnits="userSpaceOnUse"><stop offset="0" stop-color="#006d46" stop-opacity="0"/><stop offset=".17" stop-color="#006d46" stop-opacity=".05"/><stop offset=".37" stop-color="#006d46" stop-opacity=".18"/><stop offset=".59" stop-color="#006d46" stop-opacity=".41"/><stop offset=".83" stop-color="#006d46" stop-opacity=".72"/><stop offset="1" stop-color="#006d46"/></linearGradient><path fill="url(#C)" d="M589.2 133.8l60.7-80 74.8 56.7-60.7 80.1z"/></g><defs><path id="D" d="M632.7 4.3c-1.9 8.8-1.5 18 1 26.6 3.4 11.8 12.9 22.7 12.9 22.7l40 40.1c4.1 4.1 5.8 9.9 4.7 15.5l1.8-2 5.1-5.1c4.4-4.4 7.2-10.3 7.8-16.5.1-.8.1-1.7.1-2.5V83c0-7.1-2.9-13.9-7.9-18.9L633.6 0l-.9 4.3z"/></defs><clipPath id="E"><use xlink:href="#D"/></clipPath><g clip-path="url(#E)"><linearGradient id="F" x1="694.771" x2="639.719" y1="85.524" y2="22.193" gradientUnits="userSpaceOnUse"><stop offset="0" stop-color="#006d46" stop-opacity="0"/><stop offset=".17" stop-color="#006d46" stop-opacity=".05"/><stop offset=".37" stop-color="#006d46" stop-opacity=".18"/><stop offset=".59" stop-color="#006d46" stop-opacity=".41"/><stop offset=".83" stop-color="#006d46" stop-opacity=".72"/><stop offset="1" stop-color="#006d46"/></linearGradient><path fill="url(#F)" d="M575.5 47l97.7-85 87.1 100.2-97.8 85z"/></g></svg>