<svg id="Layer_1" data-name="Layer 1" xmlns="http://www.w3.org/2000/svg" viewBox="0 0 300 300"><defs><style>.cls-2{fill:#fff}</style></defs><circle cx="150" cy="150" r="149" style="fill:#151f6d"/><path class="cls-2" d="M101.31 116c0 3.32-1.78 5.1-5.1 5.1H93V69.73h-6.65V66.5c0-3.32 1.78-5.1 5.1-5.1h9.86ZM116.28 61.4h16.41v3.06c0 3.32-1.78 5.1-5.1 5.1h-9.52l-1.28 14.8a11.34 11.34 0 0 1 6.13-1.62c7.48 0 11.39 6.8 11.39 16.92v4.85c-.17 11.23-5.36 17.27-14 17.27s-13.43-6-13.43-14.21a4.12 4.12 0 0 1 4.25-4.33 4.06 4.06 0 0 1 4.25 4.25c0 3.48 1.45 6.12 5 6.12s5.53-2.89 5.53-9.1v-4.67c0-6-1-9.27-4.77-9.27-2.38 0-4.42 1.1-4.76 3.48-.34 1.62-1.27 3.4-3.91 3.4a3.78 3.78 0 0 1-4-4.25l2-26.53c.45-3.49 2.53-5.27 5.81-5.27ZM167.47 76.54v29.25c0 9.69-5.69 15.82-13.69 15.82S140 115.48 140 105.79V76.54c0-9.78 5.7-15.74 13.77-15.74s13.7 5.96 13.7 15.74Zm-19 0v29.25c0 5.44 2.38 7.65 5.27 7.65s5.19-2.21 5.19-7.65V76.54C159 71 156.59 69 153.78 69s-5.27 2-5.27 7.54ZM201.32 76.54v29.25c0 9.69-5.7 15.82-13.69 15.82s-13.78-6.13-13.78-15.82V76.54c0-9.78 5.7-15.74 13.78-15.74s13.69 5.96 13.69 15.74Zm-19 0v29.25c0 5.44 2.38 7.65 5.27 7.65s5.19-2.21 5.19-7.65V76.54c0-5.53-2.38-7.57-5.19-7.57s-5.23 2.03-5.23 7.57ZM209.06 116.33a5.27 5.27 0 1 1 5.27 5.28 5.2 5.2 0 0 1-5.27-5.28Zm5.44-24.4h13.27v3.31c0 3.32-1.79 5.11-5.11 5.11H209.4V97c0-3.29 1.78-5.07 5.1-5.07ZM43.78 185.72a2.91 2.91 0 0 1-3.23 3.28H28.7v-33.55q0-4.2 4.52-4.2h10.45v2.05a2.9 2.9 0 0 1-3.23 3.23H34V167h7.3v2.05a2.9 2.9 0 0 1-3.23 3.23H34v11.37h9.8ZM50.08 151.09a2.44 2.44 0 0 1 2.48 1.62l3.77 9.85 3.18-8.29a4.15 4.15 0 0 1 4-3h2.64l-7 17.83 6.55 16.3a2.64 2.64 0 0 1-2.42 3.72 2.43 2.43 0 0 1-2.48-1.62l-4.58-11.69-3.72 10.07c-.75 2-2.1 3.08-4 3.08h-2.8l7.81-19.67-5.87-14.48a2.63 2.63 0 0 1 2.44-3.72ZM85.2 153.3a2.9 2.9 0 0 1-3.2 3.23h-3.27v29.19A2.91 2.91 0 0 1 75.5 189h-2.15v-32.47H67.1v-2.05a2.9 2.9 0 0 1 3.23-3.23H85.2ZM105.29 162.88c0 4.8-1.57 8.41-4.26 10.4l4.79 12.18a2.72 2.72 0 0 1-5 2.09L96.34 175h-2.85v10.71a2.91 2.91 0 0 1-3.23 3.29H88.1v-33.76q0-4.2 4.53-4.2h3c5.99-.04 9.66 4.52 9.66 11.84Zm-11.8 7h2c3 0 4.47-2.37 4.47-6.89s-1.45-6.63-4.52-6.63h-1.95ZM115 181.58l-.6 4.2c-.32 2-1.5 3.18-3.39 3.18h-2.42l5.28-33.67c.43-2.75 2.15-4.15 5.17-4.15h3.71l5.44 34.69a2.64 2.64 0 0 1-2.58 3.29 2.54 2.54 0 0 1-2.64-2.21l-.75-5.33Zm3.61-24.78-2.8 19.5h5.65ZM144.17 151.25h2.15v34.47a2.91 2.91 0 0 1-3.23 3.24h-2.15v-34.48a2.9 2.9 0 0 1 3.23-3.23ZM165.07 154.48a2.9 2.9 0 0 1 3.23-3.23h1.83v34.53c0 2-1.08 3.12-3 3.18h-.7c-2.05 0-3.13-1.14-3.72-3.13l-6-22.19v22.08a2.91 2.91 0 0 1-3.23 3.24h-1.83v-34.53c0-2.05 1.08-3.13 3-3.18h.7c2 0 3.12 1.13 3.72 3.13l6 22ZM192.64 178.18c0 7.11-3.45 10.78-10.18 10.78h-7v-33.72q0-4.2 4.53-4.2h2.53c6 0 9.42 3.71 9.42 10.18 0 3.6-1.07 6.35-3.07 8.07 2.53 1.62 3.77 4.64 3.77 8.89Zm-10.34-11c3.07 0 4.52-1.78 4.52-5.5s-1.4-5.39-4.52-5.39h-1.4v10.91Zm5 10.87c0-3.93-1.51-5.7-4.85-5.7h-1.55v11.31h1.56c3.34.02 4.85-1.66 4.85-5.59ZM196.62 151.09a2.39 2.39 0 0 1 2.48 1.62l4.31 13.73 3.29-12.06a3.73 3.73 0 0 1 3.77-3.13H213l-6.89 23.05v11.42a2.91 2.91 0 0 1-3.24 3.24h-2.15v-14.6l-6.47-19.55c-.59-1.81.33-3.72 2.37-3.72ZM231.42 153.3a2.9 2.9 0 0 1-3.23 3.23H225v29.19a2.91 2.91 0 0 1-3.24 3.24h-2.15v-32.43h-6.25v-2.05a2.9 2.9 0 0 1 3.23-3.23h14.87ZM249.41 185.72a2.91 2.91 0 0 1-3.24 3.24h-11.84v-33.51c0-2.8 1.5-4.2 4.52-4.2h10.45v2.05a2.9 2.9 0 0 1-3.23 3.23h-6.47V167h7.33v2.05a2.9 2.9 0 0 1-3.23 3.23h-4.1v11.37h9.81ZM251.94 180.28a2.59 2.59 0 0 1 2.64-2.8 2.53 2.53 0 0 1 2.63 2.59c.22 2.64 1.14 4.09 3.08 4.09s3.17-1.29 3.17-4v-.49c0-3.12-.48-4.58-5.38-8.51-4.26-3.39-5.82-6.3-5.82-10.34v-.7c0-5.55 3.18-9.26 8.29-9.26s8.08 3.87 8.3 9a2.59 2.59 0 0 1-2.64 2.8 2.5 2.5 0 0 1-2.64-2.58c-.21-2.64-1.24-4.1-3-4.1s-2.9 1.24-2.9 4.1v.65c0 2.74 1.13 4.3 4.47 6.94 4.52 3.56 6.62 6.41 6.62 11.64v.81c0 5.54-3.34 9.15-8.45 9.15s-8.16-3.81-8.37-8.99ZM273.8 167.46h8.51v1.62a2.9 2.9 0 0 1-3.23 3.23h-8.51v-1.61a2.91 2.91 0 0 1 3.23-3.24ZM97.6 207.78a2.55 2.55 0 0 1 2.74 2.21l4.37 29.47 4-28.34c.27-2 1.45-3.17 3.34-3.17h2.58l-5.44 34.31a3.89 3.89 0 0 1-4.25 3.55h-.81a3.9 3.9 0 0 1-4.26-3.55L95 211a2.62 2.62 0 0 1 2.6-3.22ZM121.29 238.27l-.59 4.2c-.32 2.05-1.51 3.18-3.39 3.18h-2.43l5.28-33.65c.43-2.74 2.16-4.14 5.17-4.14h3.72l5.44 34.69a2.64 2.64 0 0 1-2.58 3.28 2.54 2.54 0 0 1-2.64-2.21l-.76-5.33Zm-2.74-35.17a2.86 2.86 0 1 1 2.85 2.8 2.77 2.77 0 0 1-2.85-2.8Zm6.35 10.39L122.1 233h5.66Zm1.1-10.39a2.86 2.86 0 1 1 2.86 2.8 2.77 2.77 0 0 1-2.86-2.8ZM155.6 219.58c0 4.79-1.56 8.4-4.25 10.39l4.79 12.18a2.72 2.72 0 0 1-5 2.1l-4.47-12.55h-2.85v10.72a2.9 2.9 0 0 1-3.23 3.23h-2.16v-33.72q0-4.2 4.53-4.2h3c5.98 0 9.64 4.52 9.64 11.85Zm-11.79 6.95h2c3 0 4.47-2.37 4.47-6.9s-1.45-6.62-4.52-6.62h-1.94ZM164.81 207.73h2.69c7.71 0 11 5.6 11 19s-3.28 19-11 19h-7.21v-33.8c0-2.8 1.5-4.2 4.52-4.2Zm8.24 19c0-10-1.51-13.68-5.81-13.68h-1.57v27.36h1.57c4.3-.04 5.81-3.7 5.81-13.72ZM198 242.42a2.9 2.9 0 0 1-3.23 3.23h-11.86v-33.5q0-4.2 4.52-4.2h10.45v2a2.9 2.9 0 0 1-3.23 3.23h-6.46v10.51h7.32v2a2.91 2.91 0 0 1-3.23 3.24h-4.09v11.36H198ZM212.85 219.2l-.32.59-4.15-2.64.33 1.94c.32 1.89-.49 3-2.37 3.07l-.65.06.16-4.9-1.51 1.29a2.32 2.32 0 0 1-3.82-.59l-.38-.54 4.36-2.26-1.88-.7c-1.78-.65-2.26-1.94-1.4-3.61l.27-.6 4.09 2.64-.32-2c-.32-1.83.54-2.91 2.42-3l.65-.06-.22 5 1.56-1.3c1.46-1.24 2.81-1 3.83.54l.38.54-4.37 2.26 1.89.7c1.78.61 2.26 1.85 1.45 3.57Z"/></svg>